#!OML:ASF F:\VICON\USERDATA\INSTALL\rory3\rory3.ASF
:FULLY-SPECIFIED
:DEGREES
2230
root -1.06128 17.5451 13.1614 -176.855 -32.6892 -188.497
lowerback 11.3577 2.57703 -4.77206
upperback 2.01215 2.64906 -0.781258
thorax -4.44014 1.30363 1.47294
lowerneck -17.2672 2.6324 -9.76249
upperneck 38.5218 3.16232 4.66167
head 16.4748 -0.332753 4.13569
rclavicle 7.05686e-015 6.36111e-015
rhumerus -35.3904 -13.8723 -77.8788
rradius 34.5027
rwrist 8.09752
rhand -19.2871 13.2975
rfingers 7.12502
rthumb 7.02802 -16.5658
lclavicle 7.05686e-015 6.36111e-015
lhumerus -25.6167 4.85228 79.3535
lradius 32.8681
lwrist 0.0921051
lhand -22.1185 24.6741
lfingers 7.12502
lthumb 4.29434 54.6105
rfemur -13.7642 -11.3227 15.7905
rtibia 50.0975
rfoot -23.9096 11.6783
rtoes -7.44228
lfemur -4.55979 1.40285 -26.5897
ltibia 28.0182
lfoot -15.2277 -11.7093
ltoes -7.20269
2231
root -1.10273 17.5355 13.1938 -176.785 -32.4988 -188.917
lowerback 11.3892 2.66254 -4.92065
upperback 2.10746 2.72464 -0.961426
thorax -4.36066 1.3337 1.35755
lowerneck -17.3408 2.66378 -9.97472
upperneck 38.6288 3.23192 4.80525
head 16.5316 -0.324008 4.25558
rclavicle -7.44449e-014 3.18055e-014
rhumerus -35.3147 -13.7315 -78.0373
rradius 34.5131
rwrist 7.93342
rhand -19.4335 13.3869
rfingers 7.12502
rthumb 6.88667 -16.4811
lclavicle -7.44449e-014 3.18055e-014
lhumerus -25.5815 5.18179 79.2249
lradius 32.8553
lwrist -0.11816
lhand -22.0663 24.6216
lfingers 7.12502
lthumb 4.34475 54.557
rfemur -13.2662 -10.705 15.7541
rtibia 49.4962
rfoot -22.5674 11.743
rtoes 2.19509
lfemur -4.58737 1.75214 -27.0303
ltibia 28.3269
lfoot -15.0431 -12.5204
ltoes -5.43343
2232
root -1.14512 17.5315 13.2255 -176.802 -32.2943 -189.163
lowerback 11.4184 2.71993 -4.87543
upperback 2.20418 2.78826 -1.12855
thorax -4.26905 1.35564 1.14961
lowerneck -17.4138 2.71578 -10.0768
upperneck 38.6888 3.35532 4.81238
head 16.5653 -0.291756 4.30263
rclavicle -6.94752e-014 0
rhumerus -35.1466 -13.6467 -78.2148
rradius 34.4428
rwrist 7.90389
rhand -19.5558 13.5129
rfingers 7.12502
rthumb 6.76867 -16.3589
lclavicle -6.94752e-014 0
lhumerus -25.5571 5.32515 79.0855
lradius 32.8792
lwrist -0.150981
lhand -22.0565 24.6209
lfingers 7.12502
lthumb 4.35424 54.5561
rfemur -12.7151 -9.92381 15.8016
rtibia 48.8206
rfoot -21.8321 9.83501
rtoes 5.32637
lfemur -4.6407 2.26291 -27.2813
ltibia 28.6608
lfoot -14.915 -13.3405
ltoes -4.80135
2233
root -1.18591 17.5269 13.2594 -176.858 -32.0977 -189.403
lowerback 11.5387 2.80228 -4.80349
upperback 2.27938 2.87987 -1.31457
thorax -4.24909 1.39223 0.898391
lowerneck -17.4399 2.74697 -10.0083
upperneck 38.7432 3.42424 4.69379
head 16.5997 -0.2756 4.25218
rclavicle -2.41026e-014 -6.36111e-015
rhumerus -34.9952 -13.5142 -78.4035
rradius 34.3476
rwrist 7.85161
rhand -19.1514 13.152
rfingers 7.12502
rthumb 7.15898 -16.7069
lclavicle -2.41026e-014 -6.36111e-015
lhumerus -25.6145 5.18935 78.933
lradius 32.9753
lwrist -0.085899
lhand -22.1018 24.5313
lfingers 7.12502
lthumb 4.31044 54.4674
rfemur -12.1737 -9.08207 15.7627
rtibia 48.0965
rfoot -22.0622 6.43694
rtoes 0.0275364
lfemur -4.69357 2.65783 -27.5218
ltibia 29.063
lfoot -14.6373 -14.1342
ltoes -4.27876
2234
root -1.22592 17.5192 13.2939 -176.911 -31.9534 -189.621
lowerback 11.6256 2.87344 -4.70859
upperback 2.36074 2.96523 -1.45983
thorax -4.20393 1.42596 0.679354
lowerneck -17.3451 2.76875 -10.0224
upperneck 38.6888 3.50522 4.56384
head 16.5442 -0.258609 4.20474
rclavicle 6.05299e-014 1.27222e-014
rhumerus -34.9262 -13.4276 -78.5047
rradius 34.3926
rwrist 7.69398
rhand -18.6408 12.5904
rfingers 7.12502
rthumb 7.65187 -17.2512
lclavicle 6.05299e-014 1.27222e-014
lhumerus -25.761 5.0666 78.8573
lradius 33.1909
lwrist 0.0193243
lhand -22.2096 24.1169
lfingers 7.12502
lthumb 4.20634 54.0552
rfemur -11.6723 -8.2411 15.7007
rtibia 47.3388
rfoot -22.72 3.01221
rtoes -4.52465
lfemur -4.82225 2.96198 -27.7504
ltibia 29.5533
lfoot -14.3074 -14.9498
ltoes -3.72167
2235
root -1.2651 17.5155 13.329 -176.937 -31.8843 -189.837
lowerback 11.7284 2.88669 -4.55365
upperback 2.43859 2.9798 -1.61346
thorax -4.16382 1.4244 0.428477
lowerneck -17.3271 2.79348 -10.0896
upperneck 38.6884 3.60238 4.46936
head 16.5322 -0.242655 4.1899
rclavicle 8.79622e-014 -4.69132e-014
rhumerus -34.8198 -13.5192 -78.5902
rradius 34.4626
rwrist 7.87566
rhand -18.5903 12.3555
rfingers 7.12502
rthumb 7.70057 -17.4843
lclavicle 8.79622e-014 -4.69132e-014
lhumerus -25.8818 5.22346 78.7346
lradius 33.3387
lwrist -0.0798482
lhand -22.184 23.9218
lfingers 7.12502
lthumb 4.23106 53.8595
rfemur -11.2047 -7.49971 15.6113
rtibia 46.6023
rfoot -22.9904 0.899666
rtoes -0.0238178
lfemur -5.0559 3.25429 -27.9723
ltibia 30.1357
lfoot -13.9383 -15.6957
ltoes -3.90667
2236
root -1.30605 17.5159 13.3637 -177.044 -31.8723 -190.029
lowerback 11.9234 2.8494 -4.3497
upperback 2.50557 2.92848 -1.74961
thorax -4.18164 1.39093 0.174343
lowerneck -17.3205 2.83698 -10.1125
upperneck 38.7418 3.72976 4.30732
head 16.5525 -0.224851 4.14402
rclavicle -5.20816e-014 -9.14409e-015
rhumerus -34.6287 -13.2193 -78.7507
rradius 34.3176
rwrist 7.89579
rhand -19.0618 12.6744
rfingers 7.12502
rthumb 7.24554 -17.1815
lclavicle -5.20816e-014 -9.14409e-015
lhumerus -26.0684 5.49885 78.6111
lradius 33.4963
lwrist -0.194543
lhand -22.2627 24.4644
lfingers 7.12502
lthumb 4.15507 54.4036
rfemur -10.6554 -6.98378 15.4734
rtibia 45.9166
rfoot -22.8034 0.296003
rtoes 1.85244
lfemur -5.2553 3.52975 -28.1562
ltibia 30.8446
lfoot -13.4336 -16.4365
ltoes -3.50655
